<svg width="20" height="20" viewBox="0 0 20 20" fill="none" xmlns="http://www.w3.org/2000/svg">
<path fill-rule="evenodd" clip-rule="evenodd" d="M16.0066 2.32825C14.9908 1.31246 13.3439 1.31246 12.3281 2.32825L4.73784 9.91848C4.41744 10.2389 4.19015 10.6403 4.08025 11.0799L3.35889 13.9654C3.28789 14.2494 3.37109 14.5498 3.57808 14.7567C3.78506 14.9637 4.08547 15.047 4.36945 14.976L7.25493 14.2546C7.69451 14.1447 8.09596 13.9174 8.41632 13.597L16.0066 6.00676C17.0224 4.99097 17.0224 3.34404 16.0066 2.32825ZM13.5066 3.50676C13.8715 3.14184 14.4632 3.14184 14.8281 3.50676C15.193 3.87168 15.193 4.46333 14.8281 4.82825L7.23784 12.4185C7.13104 12.5253 6.99723 12.6011 6.8507 12.6376L5.31264 13.0222L5.69716 11.4841C5.73379 11.3376 5.80955 11.2038 5.91635 11.097L13.5066 3.50676Z" fill="url(#paint0_linear_7847_383878)"/>
<path d="M4.16732 16.668C3.70708 16.668 3.33398 17.0411 3.33398 17.5013C3.33398 17.9616 3.70708 18.3346 4.16732 18.3346H15.834C16.2942 18.3346 16.6673 17.9616 16.6673 17.5013C16.6673 17.0411 16.2942 16.668 15.834 16.668H4.16732Z" fill="url(#paint1_linear_7847_383878)"/>
<defs>
<linearGradient id="paint0_linear_7847_383878" x1="3.33398" y1="8.28364" x2="16.7684" y2="8.28364" gradientUnits="userSpaceOnUse">
<stop stop-color="#4776E6"/>
<stop offset="1" stop-color="#8E54E9"/>
</linearGradient>
<linearGradient id="paint1_linear_7847_383878" x1="3.33398" y1="17.5013" x2="16.6673" y2="17.5013" gradientUnits="userSpaceOnUse">
<stop stop-color="#4776E6"/>
<stop offset="1" stop-color="#8E54E9"/>
</linearGradient>
</defs>
</svg>
