<svg width="24" height="20" viewBox="0 0 24 20" fill="none" xmlns="http://www.w3.org/2000/svg">
<g clip-path="url(#clip0_7847_383796)">
<path d="M9.71664 5.13565C10.4582 5.1994 11.1566 4.70065 11.1895 4.08004C11.2813 2.34531 10.9771 -0.708279 7.52832 0.148585C3.09588 1.24882 3.76997 4.62378 9.71664 5.13565ZM8.34506 3.81454C5.91104 3.37992 5.77649 1.86456 7.87437 1.3437C9.313 0.9867 9.68379 1.95719 9.74634 2.80955C9.79134 3.42979 9.07405 3.94466 8.34506 3.81454Z" fill="url(#paint0_linear_7847_383796)"/>
<path d="M14.2419 5.13592C20.1885 4.62405 20.8626 1.24909 16.4302 0.148481C12.9814 -0.708008 12.6772 2.3452 12.769 4.07993C12.8019 4.70092 13.5003 5.19967 14.2419 5.13592ZM15.6134 3.81481C14.8844 3.94531 14.1672 3.43044 14.2126 2.80982C14.2752 1.95746 14.6459 0.986971 16.0846 1.34397C18.182 1.86483 18.0475 3.38019 15.6134 3.81481Z" fill="url(#paint1_linear_7847_383796)"/>
<path d="M12.7515 11.7148H11.2891V19.9974H12.7515V11.7148Z" fill="url(#paint2_linear_7847_383796)"/>
<path d="M4.19028 10.9658H10.3885V5.77734H3.44959C2.70395 5.77734 2.09961 6.28096 2.09961 6.90233V9.21793C2.09961 9.83929 2.5946 10.3429 3.2057 10.3429C3.63769 10.3429 4.00849 10.5979 4.19028 10.9658Z" fill="url(#paint3_linear_7847_383796)"/>
<path d="M12.7515 5.77734H11.2891V10.9658H12.7515V5.77734Z" fill="url(#paint4_linear_7847_383796)"/>
<path d="M20.5506 5.77734H13.6504V10.9658H19.8104C19.9922 10.5979 20.3625 10.3429 20.795 10.3429C21.4056 10.3429 21.9006 9.83929 21.9006 9.21793V6.90233C21.9006 6.28096 21.2962 5.77734 20.5506 5.77734Z" fill="url(#paint5_linear_7847_383796)"/>
<path d="M10.3877 11.7148H4.31055V18.8724C4.31055 19.4937 4.91489 19.9974 5.66053 19.9974H10.3877V11.7148Z" fill="url(#paint6_linear_7847_383796)"/>
<path d="M13.6504 11.7148V19.9974H18.3393C19.085 19.9974 19.6893 19.4937 19.6893 18.8724V11.7148H13.6504Z" fill="url(#paint7_linear_7847_383796)"/>
</g>
<defs>
<linearGradient id="paint0_linear_7847_383796" x1="4.65625" y1="2.57057" x2="11.2026" y2="2.57057" gradientUnits="userSpaceOnUse">
<stop stop-color="#4776E6"/>
<stop offset="1" stop-color="#8E54E9"/>
</linearGradient>
<linearGradient id="paint1_linear_7847_383796" x1="12.7559" y1="2.57071" x2="19.3022" y2="2.57071" gradientUnits="userSpaceOnUse">
<stop stop-color="#4776E6"/>
<stop offset="1" stop-color="#8E54E9"/>
</linearGradient>
<linearGradient id="paint2_linear_7847_383796" x1="11.2891" y1="15.8561" x2="12.7515" y2="15.8561" gradientUnits="userSpaceOnUse">
<stop stop-color="#4776E6"/>
<stop offset="1" stop-color="#8E54E9"/>
</linearGradient>
<linearGradient id="paint3_linear_7847_383796" x1="2.09961" y1="8.37156" x2="10.3885" y2="8.37156" gradientUnits="userSpaceOnUse">
<stop stop-color="#4776E6"/>
<stop offset="1" stop-color="#8E54E9"/>
</linearGradient>
<linearGradient id="paint4_linear_7847_383796" x1="11.2891" y1="8.37156" x2="12.7515" y2="8.37156" gradientUnits="userSpaceOnUse">
<stop stop-color="#4776E6"/>
<stop offset="1" stop-color="#8E54E9"/>
</linearGradient>
<linearGradient id="paint5_linear_7847_383796" x1="13.6504" y1="8.37156" x2="21.9006" y2="8.37156" gradientUnits="userSpaceOnUse">
<stop stop-color="#4776E6"/>
<stop offset="1" stop-color="#8E54E9"/>
</linearGradient>
<linearGradient id="paint6_linear_7847_383796" x1="4.31055" y1="15.8561" x2="10.3877" y2="15.8561" gradientUnits="userSpaceOnUse">
<stop stop-color="#4776E6"/>
<stop offset="1" stop-color="#8E54E9"/>
</linearGradient>
<linearGradient id="paint7_linear_7847_383796" x1="13.6504" y1="15.8561" x2="19.6893" y2="15.8561" gradientUnits="userSpaceOnUse">
<stop stop-color="#4776E6"/>
<stop offset="1" stop-color="#8E54E9"/>
</linearGradient>
<clipPath id="clip0_7847_383796">
<rect width="24" height="20" fill="white"/>
</clipPath>
</defs>
</svg>
