<svg width="70" height="70" viewBox="0 0 70 70" fill="none" xmlns="http://www.w3.org/2000/svg">
<rect width="70" height="70" rx="16" fill="#D8D8D8"/>
<path d="M35 50C43.2843 50 50 43.2843 50 35C50 26.7157 43.2843 20 35 20C26.7157 20 20 26.7157 20 35C20 43.2843 26.7157 50 35 50Z" fill="#627EEA"/>
<path d="M35.4668 23.75V32.0656L42.4952 35.2062L35.4668 23.75Z" fill="white" fill-opacity="0.602"/>
<path d="M35.4669 23.75L28.4375 35.2062L35.4669 32.0656V23.75Z" fill="white"/>
<path d="M35.4668 40.5956V46.2459L42.4999 36.5156L35.4668 40.5956Z" fill="white" fill-opacity="0.602"/>
<path d="M35.4669 46.2459V40.5947L28.4375 36.5156L35.4669 46.2459Z" fill="white"/>
<path d="M35.4668 39.2861L42.4952 35.2052L35.4668 32.0664V39.2861Z" fill="white" fill-opacity="0.2"/>
<path d="M28.4375 35.2052L35.4669 39.2861V32.0664L28.4375 35.2052Z" fill="white" fill-opacity="0.602"/>
</svg>
