<svg width="70" height="70" viewBox="0 0 70 70" fill="none" xmlns="http://www.w3.org/2000/svg">
<rect width="70" height="70" rx="16" fill="#D8D8D8"/>
<g clip-path="url(#clip0_7845_383717)">
<path d="M32.7762 16.5C24.3701 16.5 17.5312 23.1589 17.5312 31.3437C17.5312 39.7121 24.6089 46.2153 32.7762 46.2153C33.9835 46.2153 35.1666 46.0722 36.307 45.803L34.7547 42.9866C34.5137 43.1979 34.2589 43.3808 33.9893 43.5252V41.5979L33.3873 40.5057C32.6254 39.1234 32.8582 37.3421 34.0944 36.1981C34.0593 36.1965 34.0245 36.1944 33.9893 36.193V32.5249H38.1213V30.1626H33.9893V26.466C35.3321 26.413 36.6406 26.2724 37.8857 26.0514C38.0312 26.7013 38.1492 27.3758 38.2388 28.0692C38.5229 27.0358 39.3001 26.1973 40.309 25.8075C40.2882 25.71 40.2685 25.6117 40.2467 25.515C41.3828 25.1949 42.4364 24.8001 43.3798 24.3381C43.6559 24.7332 43.9086 25.1452 44.1376 25.5708H46.2619C46.4594 25.5708 46.6527 25.5879 46.8412 25.6189C44.5353 20.268 39.0994 16.5 32.7762 16.5ZM27.4996 19.9694C26.8461 20.9899 26.3418 22.1101 25.9502 23.2403C25.1739 23.02 24.4433 22.7623 23.7739 22.4674C24.848 21.4346 26.1076 20.5841 27.4996 19.9694ZM22.1726 24.338C23.116 24.8 24.1695 25.1948 25.3057 25.5149C24.9758 26.9777 24.772 28.5445 24.7045 30.1626H20.0154C20.223 28.0182 20.9898 26.0298 22.1726 24.338ZM20.0154 32.5249H24.7032C24.7687 34.1333 24.9691 35.6912 25.2939 37.1472C24.1563 37.4683 23.1015 37.8646 22.1575 38.3282C20.9832 36.641 20.2222 34.6603 20.0154 32.5249ZM23.7532 40.2004C24.4231 39.9039 25.1546 39.6449 25.9323 39.4235C26.328 40.5756 26.8324 41.6952 27.4745 42.7066C26.0836 42.0889 24.8254 41.236 23.7532 40.2004ZM31.5631 43.5251C29.9914 42.6839 28.9054 40.5507 28.3087 38.8928C29.348 38.7188 30.4393 38.6049 31.5631 38.5575V43.5251ZM31.5631 36.1931C30.2157 36.2462 28.9029 36.3877 27.6543 36.6096C27.371 35.3285 27.194 33.9523 27.1313 32.5249H31.5631V36.1931ZM31.5631 30.1625H27.1325C27.1971 28.7248 27.3782 27.3396 27.6667 26.0513C28.9118 26.2721 30.2203 26.4128 31.5631 26.4658V30.1625ZM31.5631 24.1015C30.4465 24.0543 29.3616 23.9415 28.328 23.7693C28.9265 22.1243 30.008 20.0224 31.5631 19.1902V24.1015ZM33.9893 24.1016V19.1902C35.546 20.0233 36.6261 22.1248 37.2243 23.7694C36.1907 23.9416 35.1059 24.0544 33.9893 24.1016ZM39.6021 23.2403C39.2104 22.1101 38.7062 20.9899 38.0526 19.9694C39.4448 20.5841 40.7044 21.4345 41.7785 22.4674C41.1091 22.7624 40.3786 23.02 39.6021 23.2403Z" fill="url(#paint0_linear_7845_383717)"/>
<path d="M51.1934 37.5624H47.2933V28.9393C47.2933 28.3839 46.8308 27.9336 46.2604 27.9336H41.579C41.0085 27.9336 40.5461 28.3839 40.5461 28.9393V37.5624H36.6462C35.6837 37.5624 35.0694 38.5645 35.5238 39.389L43.0097 52.9712C43.399 53.6776 44.4412 53.6763 44.8299 52.9712L52.3158 39.389C52.7708 38.5634 52.1546 37.5624 51.1934 37.5624Z" fill="url(#paint1_linear_7845_383717)"/>
</g>
<defs>
<linearGradient id="paint0_linear_7845_383717" x1="17.5312" y1="31.3577" x2="46.8412" y2="31.3577" gradientUnits="userSpaceOnUse">
<stop stop-color="#4776E6"/>
<stop offset="1" stop-color="#8E54E9"/>
</linearGradient>
<linearGradient id="paint1_linear_7845_383717" x1="35.3711" y1="40.7171" x2="52.4686" y2="40.7171" gradientUnits="userSpaceOnUse">
<stop stop-color="#4776E6"/>
<stop offset="1" stop-color="#8E54E9"/>
</linearGradient>
<clipPath id="clip0_7845_383717">
<rect width="38" height="37" fill="white" transform="translate(16 16.5)"/>
</clipPath>
</defs>
</svg>
