<svg width="70" height="70" viewBox="0 0 70 70" fill="none" xmlns="http://www.w3.org/2000/svg">
<rect width="70" height="70" rx="16" fill="#D8D8D8"/>
<path d="M48.9957 23.2982C48.187 22.4891 47.2268 21.8473 46.17 21.4094C45.1132 20.9715 43.9805 20.7461 42.8365 20.7461C41.6926 20.7461 40.5599 20.9715 39.5031 21.4094C38.4463 21.8473 37.4861 22.4891 36.6774 23.2982L34.999 24.9765L33.3207 23.2982C31.6872 21.6646 29.4717 20.7469 27.1615 20.7469C24.8514 20.7469 22.6359 21.6646 21.0024 23.2982C19.3689 24.9317 18.4512 27.1472 18.4512 29.4573C18.4512 31.7675 19.3689 33.983 21.0024 35.6165L22.6807 37.2948L34.999 49.6131L47.3174 37.2948L48.9957 35.6165C49.8048 34.8078 50.4466 33.8476 50.8845 32.7908C51.3224 31.734 51.5478 30.6013 51.5478 29.4573C51.5478 28.3134 51.3224 27.1806 50.8845 26.1238C50.4466 25.067 49.8048 24.1068 48.9957 23.2982Z" fill="url(#paint0_linear_7845_383727)"/>
<defs>
<linearGradient id="paint0_linear_7845_383727" x1="18.4512" y1="35.1796" x2="51.5478" y2="35.1796" gradientUnits="userSpaceOnUse">
<stop stop-color="#4776E6"/>
<stop offset="1" stop-color="#8E54E9"/>
</linearGradient>
</defs>
</svg>
