<svg width="115" height="115" viewBox="0 0 115 115" fill="none" xmlns="http://www.w3.org/2000/svg">
<rect width="115" height="115" rx="57.5" fill="white"/>
<g clip-path="url(#clip0_7849_383729)">
<path d="M75.1507 83.4526V31.5475C75.1507 29.3123 73.3393 27.5 71.1042 27.5H43.8942C41.658 27.5 39.8477 29.3123 39.8477 31.5475V83.4526C39.8477 85.6888 41.657 87.4999 43.8942 87.4999H71.1042C73.3393 87.5 75.1507 85.6888 75.1507 83.4526ZM57.4323 85.0293C56.0238 85.0293 54.884 83.8905 54.884 82.483C54.884 81.0764 56.0238 79.9366 57.4323 79.9366C58.836 79.9366 59.9787 81.0763 59.9787 82.483C59.9787 83.8904 58.8359 85.0293 57.4323 85.0293ZM69.6877 75.2508C69.6877 75.8659 69.1893 76.3654 68.5731 76.3654H46.4224C45.8062 76.3654 45.3078 75.8659 45.3078 75.2508V35.291C45.3078 34.6758 45.8062 34.1775 46.4224 34.1775H68.573C69.1892 34.1775 69.6876 34.6758 69.6876 35.291V75.2508H69.6877Z" fill="url(#paint0_linear_7849_383729)"/>
<path d="M56.9079 58.442C57.0468 58.5859 57.2793 58.6767 57.5281 58.6767C57.7768 58.6788 58.0105 58.585 58.1423 58.4481L64.2779 52.27C64.5226 52.0233 64.4775 51.679 64.4775 51.679L58.1594 45.501C58.0234 45.3651 57.7828 45.2705 57.5272 45.2735C57.2714 45.2735 57.0318 45.3641 56.8889 45.5081L50.6746 51.677C50.5478 51.814 50.5729 52.0234 50.8187 52.272L56.9079 58.442Z" fill="url(#paint1_linear_7849_383729)"/>
<path d="M49.8758 53.248C49.466 52.8332 49.1348 52.9691 49.1348 53.5521V61.4478C49.1348 62.0296 49.4651 62.1637 49.8718 61.7479L54.0492 57.4768L49.8758 53.248Z" fill="url(#paint2_linear_7849_383729)"/>
<path d="M60.0308 58.4695L59.1045 59.404C58.6706 59.8389 58.0926 60.0333 57.5288 60.0333C56.9659 60.0323 56.384 59.838 55.944 59.3968L55.0016 58.4414L50.8121 62.7236C50.4053 63.1405 50.5473 63.4777 51.1292 63.4777H63.8689C64.4509 63.4777 64.5928 63.1405 64.187 62.7236L60.0308 58.4695Z" fill="url(#paint3_linear_7849_383729)"/>
<path d="M65.1212 53.3477L60.9902 57.506L65.1285 61.7439C65.5352 62.1607 65.8655 62.0258 65.8655 61.4438V53.6538C65.8654 53.0719 65.5321 52.9349 65.1212 53.3477Z" fill="url(#paint4_linear_7849_383729)"/>
</g>
<defs>
<linearGradient id="paint0_linear_7849_383729" x1="39.8477" y1="57.4999" x2="75.1507" y2="57.4999" gradientUnits="userSpaceOnUse">
<stop stop-color="#4776E6"/>
<stop offset="1" stop-color="#8E54E9"/>
</linearGradient>
<linearGradient id="paint1_linear_7849_383729" x1="50.5996" y1="51.9751" x2="64.4808" y2="51.9751" gradientUnits="userSpaceOnUse">
<stop stop-color="#4776E6"/>
<stop offset="1" stop-color="#8E54E9"/>
</linearGradient>
<linearGradient id="paint2_linear_7849_383729" x1="49.1348" y1="57.4987" x2="54.0492" y2="57.4987" gradientUnits="userSpaceOnUse">
<stop stop-color="#4776E6"/>
<stop offset="1" stop-color="#8E54E9"/>
</linearGradient>
<linearGradient id="paint3_linear_7849_383729" x1="50.5801" y1="60.9596" x2="64.4183" y2="60.9596" gradientUnits="userSpaceOnUse">
<stop stop-color="#4776E6"/>
<stop offset="1" stop-color="#8E54E9"/>
</linearGradient>
<linearGradient id="paint4_linear_7849_383729" x1="60.9902" y1="57.5477" x2="65.8655" y2="57.5477" gradientUnits="userSpaceOnUse">
<stop stop-color="#4776E6"/>
<stop offset="1" stop-color="#8E54E9"/>
</linearGradient>
<clipPath id="clip0_7849_383729">
<rect width="60" height="60" fill="white" transform="translate(27.5 27.5)"/>
</clipPath>
</defs>
</svg>
