<svg xmlns="http://www.w3.org/2000/svg" width="99" height="31" viewBox="0 0 99 31" fill="none">
<path d="M37.6906 1.67969V13.2381H35.4143V4.67003H35.3153C35.2036 4.82626 35.066 4.95924 34.9096 5.06238C34.675 5.21026 34.4216 5.32099 34.1574 5.3911C33.835 5.48549 33.502 5.53188 33.1677 5.52895V3.58841C33.5073 3.59785 33.8448 3.52914 34.1574 3.38694C34.4273 3.26743 34.6779 3.10279 34.8997 2.89915C35.0706 2.71357 35.2111 2.49849 35.3153 2.26291C35.4218 2.0888 35.4833 1.88755 35.4935 1.67969H37.6906Z" fill="white"/>
<path d="M40.2031 13.2381V1.6831H44.6525C45.3487 1.65676 46.0425 1.78317 46.6888 2.05413C47.1716 2.26715 47.5851 2.62047 47.8801 3.07182C48.1597 3.53109 48.3047 4.06523 48.2975 4.60895C48.3055 5.02148 48.2145 5.42957 48.0328 5.79625C47.8665 6.13325 47.6214 6.42125 47.3201 6.63372C47.0134 6.8573 46.6674 7.0158 46.3019 7.10016V7.20617C46.7216 7.23002 47.1298 7.35718 47.4932 7.5772C47.8669 7.81265 48.1757 8.14504 48.3891 8.54189C48.6342 8.99026 48.7574 9.49966 48.7455 10.0154C48.7587 10.6059 48.6007 11.1868 48.2919 11.6823C47.9831 12.1778 47.538 12.5649 47.0146 12.7929C46.3528 13.0882 45.6369 13.2293 44.9172 13.2063L40.2031 13.2381ZM42.5551 6.51711H44.2961C44.5902 6.51982 44.8815 6.45843 45.1514 6.3369C45.3903 6.2289 45.5976 6.05701 45.7521 5.83865C45.8972 5.60534 45.9717 5.33206 45.9659 5.05419C45.9796 4.85494 45.948 4.65514 45.8737 4.47097C45.7994 4.2868 45.6845 4.12343 45.5383 3.9941C45.1956 3.71926 44.7686 3.58361 44.3369 3.61246H42.5551V6.51711ZM42.5551 11.2451H44.4692C44.9738 11.2917 45.4781 11.1529 45.8946 10.8529C46.0433 10.7246 46.1612 10.562 46.239 10.378C46.3167 10.194 46.3522 9.99359 46.3426 9.79279C46.348 9.49496 46.274 9.2014 46.1288 8.94472C45.9717 8.69822 45.7536 8.50044 45.4976 8.37227C45.1789 8.21916 44.8301 8.14652 44.4794 8.16025H42.5551V11.2451Z" fill="white"/>
<path d="M60.302 7.46341C60.3265 8.54408 60.074 9.61396 59.5667 10.5789C59.116 11.4067 58.4298 12.0945 57.588 12.5624C56.7275 13.0172 55.7588 13.2498 54.7767 13.2374C53.7894 13.2523 52.8157 13.0158 51.9545 12.552C51.1105 12.0869 50.4236 11.3983 49.9758 10.5685C49.4693 9.60368 49.2204 8.53312 49.2514 7.45302C49.2235 6.37322 49.4723 5.30338 49.9758 4.33754C50.4265 3.50976 51.1127 2.82191 51.9545 2.35402C52.8218 1.91124 53.789 1.67969 54.7713 1.67969C55.7535 1.67969 56.7207 1.91124 57.588 2.35402C58.4253 2.81349 59.1111 3.49009 59.5667 4.30639C60.0809 5.28377 60.3336 6.36876 60.302 7.46341ZM57.7718 7.46341C57.7887 6.77176 57.6638 6.08368 57.4042 5.43835C57.1812 4.92871 56.8046 4.49474 56.3229 4.19215C55.8476 3.91318 55.3013 3.76557 54.7442 3.76557C54.1872 3.76557 53.6409 3.91318 53.1656 4.19215C52.6807 4.49129 52.3032 4.92632 52.0843 5.43835C51.8122 6.09846 51.687 6.80595 51.7167 7.51533C51.6945 8.20734 51.8196 8.89642 52.0843 9.54039C52.3032 10.0524 52.6807 10.4874 53.1656 10.7866C53.6409 11.0656 54.1872 11.2132 54.7442 11.2132C55.3013 11.2132 55.8476 11.0656 56.3229 10.7866C56.8046 10.484 57.1812 10.05 57.4042 9.54039C57.6709 8.87885 57.7959 8.17243 57.7718 7.46341Z" fill="white"/>
<path d="M63.1729 1.67969L65.5276 5.61379H65.6239L67.9893 1.67969H70.7721L67.208 7.45889L70.8578 13.2381H68.0214L65.6239 9.29339H65.5276L63.1408 13.2381H60.3044L63.9649 7.45889L60.4329 1.67969H63.1729Z" fill="white"/>
<path d="M33.1677 27.8123V16.2539H40.1083V17.4934H34.5601V21.4027H39.7497V22.6423H34.5601V26.5728H40.2033V27.8123H33.1677Z" fill="white"/>
<path d="M42.2949 19.2676L44.5022 22.7559L46.7095 19.2676H48.2437L45.3079 23.5392L48.2437 27.8107H46.6323L44.4249 24.4896L42.2176 27.8107H40.7056L43.5641 23.5392L40.7056 19.2676H42.2949Z" fill="white"/>
<path d="M52.5185 27.8066C51.8257 27.8405 51.1388 27.6651 50.5475 27.3033C49.9562 26.9414 49.4882 26.41 49.2046 25.7785C48.8895 25.0847 48.7333 24.3295 48.7472 23.5679C48.7313 22.7985 48.8912 22.0356 49.2148 21.337C49.5032 20.7192 49.957 20.1929 50.5261 19.8159C51.1116 19.4443 51.7942 19.2538 52.488 19.2684C53.0339 19.2611 53.5749 19.3718 54.0739 19.5928C54.5281 19.7949 54.926 20.1047 55.2327 20.4953C55.53 20.8973 55.719 21.3687 55.7816 21.8643H54.511C54.402 21.4684 54.1751 21.1148 53.8604 20.8503C53.4828 20.5439 53.0046 20.3885 52.5185 20.4142C52.0523 20.4063 51.5947 20.5408 51.2072 20.7996C50.8221 21.0604 50.5162 21.4216 50.3228 21.844C50.108 22.3646 50.0041 22.924 50.0178 23.4868C50.0054 24.0593 50.1092 24.6284 50.3228 25.16C50.4995 25.6029 50.7993 25.9864 51.1869 26.2653C51.5746 26.5327 52.0371 26.6711 52.5084 26.6607C52.8183 26.6624 53.1256 26.6038 53.4131 26.4883C53.6809 26.3734 53.9184 26.1983 54.1071 25.9767C54.2957 25.755 54.4305 25.4929 54.5008 25.2107H55.7715C55.7096 25.6875 55.5278 26.141 55.2429 26.5289C54.9512 26.9255 54.5675 27.2456 54.1247 27.4618C53.6235 27.6998 53.0735 27.8179 52.5185 27.8066Z" fill="white"/>
<path d="M58.7146 22.5999V27.8123H57.2896V16.2539H58.7146V20.4916H58.8742C59.0822 20.0568 59.4231 19.6884 59.8547 19.4322C60.3897 19.1427 61.0033 19.0029 61.6218 19.0296C62.199 19.0185 62.7703 19.1385 63.2863 19.3792C63.7789 19.6093 64.1787 19.9808 64.4263 20.4387C64.7108 21.0162 64.8474 21.6472 64.8253 22.2821V27.7911H63.3319V22.3986C63.3707 21.8138 63.1667 21.2374 62.7618 20.7883C62.5513 20.5951 62.2993 20.4453 62.0224 20.3486C61.7454 20.2519 61.4497 20.2104 61.1543 20.2268C60.7183 20.2211 60.2875 20.3157 59.9003 20.5022C59.5291 20.6849 59.2238 20.9649 59.0224 21.3074C58.8065 21.708 58.7008 22.1521 58.7146 22.5999Z" fill="white"/>
<path d="M68.6262 27.8102C68.1379 27.8178 67.6542 27.7084 67.2111 27.4902C66.802 27.2959 66.4538 26.9814 66.2075 26.5836C65.9504 26.1502 65.8211 25.6451 65.8361 25.1331C65.8128 24.6995 65.9031 24.2675 66.0971 23.8852C66.2812 23.5763 66.5369 23.3229 66.8397 23.1493C67.1565 22.9713 67.4939 22.8386 67.8434 22.7546C68.2147 22.6693 68.5961 22.5946 68.9774 22.5413L70.1918 22.3813C70.4283 22.3693 70.6603 22.3076 70.8743 22.2C70.9523 22.159 71.0174 22.0948 71.062 22.0154C71.1065 21.9359 71.1284 21.8445 71.1252 21.752C71.14 21.5154 71.1094 21.278 71.0352 21.0543C70.961 20.8306 70.8448 20.6253 70.6936 20.4508C70.5163 20.2698 70.3045 20.1313 70.0725 20.0448C69.8405 19.9583 69.5937 19.9258 69.3488 19.9495C68.8468 19.9184 68.3493 20.0647 67.9337 20.3655C67.6305 20.6002 67.383 20.907 67.2111 21.2614L66.0168 20.8134C66.2165 20.3396 66.5276 19.9282 66.92 19.6189C67.265 19.3253 67.6655 19.1143 68.0943 19.0003C68.5014 18.8657 68.9229 18.7869 69.3488 18.7656C69.6552 18.7699 69.9608 18.802 70.2621 18.8616C70.615 18.9382 70.954 19.075 71.2657 19.2669C71.6014 19.5009 71.8772 19.8198 72.0686 20.1948C72.2919 20.7159 72.3918 21.2871 72.3596 21.8587V27.6075H71.1252V26.4236H71.065C70.9526 26.6495 70.8069 26.8548 70.6334 27.0316C70.4052 27.269 70.136 27.4573 69.8406 27.5862C69.4537 27.7456 69.0409 27.8218 68.6262 27.8102ZM68.8169 26.605C69.2564 26.619 69.6919 26.5125 70.0814 26.2956C70.4046 26.1029 70.6746 25.8234 70.8643 25.485C71.0376 25.16 71.1276 24.7922 71.1252 24.4185V23.2239C71.0254 23.3166 70.9041 23.3792 70.7739 23.4052C70.5701 23.4681 70.3621 23.5145 70.1517 23.5439L69.4793 23.6505L68.9473 23.7145C68.6347 23.7642 68.326 23.839 68.024 23.9385C67.7628 24.02 67.5271 24.1747 67.3416 24.3865C67.1607 24.6115 67.0673 24.9014 67.0806 25.1971C67.0689 25.4049 67.1081 25.6123 67.1943 25.7992C67.2805 25.9861 67.4107 26.1461 67.5724 26.2636C67.9457 26.5073 68.3792 26.6262 68.8169 26.605Z" fill="white"/>
<path d="M75.3431 22.4378V27.8113H73.873V18.8774H75.2737V20.2753H75.401C75.6192 19.828 75.9687 19.449 76.4081 19.1832C76.9403 18.8885 77.551 18.7445 78.1676 18.7681C78.7513 18.7568 79.3285 18.8846 79.846 19.1395C80.3473 19.3754 80.7536 19.7587 81.0036 20.2317C81.2927 20.8231 81.4314 21.4701 81.4087 22.1211V27.8004H79.9734V22.2303C80.011 21.631 79.8039 21.0408 79.3946 20.5811C79.1884 20.3809 78.9391 20.2247 78.6636 20.123C78.3881 20.0212 78.0926 19.9764 77.7972 19.9914C77.3655 19.9854 76.9393 20.0832 76.5586 20.2753C76.1941 20.4682 75.8966 20.7565 75.702 21.1054C75.4667 21.5144 75.3434 21.9724 75.3431 22.4378Z" fill="white"/>
<path d="M86.5097 30.8257C85.9892 30.836 85.4706 30.7548 84.9747 30.5852C84.587 30.4414 84.2262 30.2254 83.9089 29.9472C83.6444 29.7079 83.4167 29.4256 83.2342 29.1106L84.212 28.3681C84.3195 28.525 84.4564 28.7028 84.6324 28.9119C84.8287 29.1343 85.0648 29.3121 85.3266 29.4348C85.6969 29.6038 86.0977 29.6824 86.5 29.6649C87.0685 29.6908 87.629 29.5142 88.0937 29.1629C88.311 28.9765 88.4825 28.7362 88.5933 28.4628C88.704 28.1895 88.7507 27.8913 88.7293 27.5943V25.8792H88.6217C88.5048 26.0784 88.3775 26.2704 88.2404 26.4544C88.0473 26.7063 87.8076 26.9128 87.5364 27.0609C87.1483 27.2541 86.7222 27.3438 86.2946 27.3224C85.6833 27.3328 85.0811 27.1628 84.5542 26.8308C84.0373 26.4827 83.6262 25.9813 83.3711 25.3877C83.0518 24.6776 82.8975 23.8955 82.9213 23.1079C82.9138 22.3186 83.0673 21.537 83.3711 20.8177C83.6375 20.2028 84.0569 19.6781 84.5835 19.3013C85.0977 18.9512 85.6949 18.7661 86.3044 18.7679C86.7328 18.7494 87.159 18.8427 87.5462 19.0398C87.8164 19.1986 88.0554 19.4116 88.2502 19.6673C88.3873 19.8512 88.5146 20.0433 88.6315 20.2425H88.7586V18.883H89.9515V27.6779C89.9792 28.3158 89.8147 28.9463 89.4822 29.4767C89.1707 29.9498 88.7352 30.3138 88.2306 30.5224C87.6786 30.733 87.0957 30.8357 86.5097 30.8257ZM86.5097 26.1197C86.9416 26.1411 87.3689 26.0174 87.7318 25.7662C88.0947 25.5149 88.3751 25.1485 88.5337 24.7184C88.7225 24.1988 88.8122 23.6442 88.7977 23.087C88.8077 22.5302 88.7181 21.9764 88.5337 21.4556C88.3829 21.0162 88.1184 20.6317 87.7711 20.3471C87.4009 20.0744 86.959 19.9352 86.5097 19.9497C86.0445 19.9273 85.5859 20.0748 85.2093 20.368C84.8545 20.6627 84.5836 21.0575 84.4271 21.5079C84.2549 22.0138 84.1688 22.5486 84.1729 23.087C84.1648 23.6266 84.2545 24.1629 84.4369 24.6661C84.5979 25.0881 84.8695 25.4512 85.2191 25.7119C85.5868 25.9829 86.0241 26.1254 86.4706 26.1197H86.5097Z" fill="white"/>
<path d="M95.1746 27.8057C94.3912 27.8172 93.6196 27.6212 92.9449 27.2395C92.3067 26.8627 91.7957 26.3173 91.4733 25.6688C91.1202 24.9321 90.9449 24.1287 90.9604 23.3182C90.9465 22.5009 91.1216 21.6908 91.4733 20.9461C91.7896 20.2952 92.2872 19.7406 92.9114 19.3434C93.5576 18.9516 94.3098 18.7509 95.0743 18.7665C95.5523 18.7662 96.027 18.842 96.479 18.9908C96.952 19.1484 97.385 19.3996 97.75 19.7281C98.1532 20.1058 98.4619 20.566 98.653 21.0744C98.8977 21.736 99.0148 22.4347 98.9986 23.1365V23.7028H91.9638V22.5489H97.5382C97.5487 22.0894 97.4415 21.6345 97.226 21.224C97.0331 20.8481 96.7361 20.5302 96.3675 20.3051C95.9667 20.0771 95.5068 19.9623 95.0408 19.9738C94.527 19.9608 94.0212 20.0988 93.5915 20.3692C93.1892 20.6428 92.8668 21.0107 92.655 21.4376C92.4409 21.8605 92.3303 22.3246 92.3317 22.7946V23.5639C92.3153 24.1419 92.4373 24.7157 92.6885 25.2414C92.9087 25.6826 93.2571 26.0536 93.6919 26.3099C94.1484 26.5523 94.664 26.674 95.1858 26.6625C95.5265 26.6649 95.8653 26.6143 96.1892 26.5129C96.4757 26.4118 96.7375 26.2555 96.9584 26.0535C97.1882 25.844 97.3605 25.5834 97.4601 25.2948L98.8203 25.6581C98.6764 26.095 98.4283 26.4938 98.0956 26.8228C97.748 27.1643 97.3252 27.4271 96.8581 27.5921C96.3151 27.7606 95.7447 27.833 95.1746 27.8057Z" fill="white"/>
<path d="M13.9092 27.9867C21.5911 27.9867 27.8185 21.7601 27.8185 14.0793C27.8185 6.39843 21.5911 0.171875 13.9092 0.171875C6.22738 0.171875 0 6.39843 0 14.0793C0 21.7601 6.22738 27.9867 13.9092 27.9867Z" fill="url(#paint0_linear)"/>
<path d="M13.6958 23.5532L21.7096 18.9557V9.77711L13.6958 5.26172L5.66553 9.85921V19.0378L13.6958 23.5532Z" stroke="white" stroke-width="1.00508" stroke-linecap="round" stroke-linejoin="round"/>
<path d="M5.71484 9.77734L13.6958 14.3748L21.7096 9.77734" stroke="white" stroke-width="1.00508" stroke-linecap="round" stroke-linejoin="round"/>
<path d="M13.6958 23.4715V14.375" stroke="white" stroke-width="1.00508" stroke-linecap="round" stroke-linejoin="round"/>
<defs>
<linearGradient id="paint0_linear" x1="0" y1="14.0793" x2="27.8185" y2="14.0793" gradientUnits="userSpaceOnUse">
<stop stop-color="#E65C00"/>
<stop offset="1" stop-color="#F9D423"/>
</linearGradient>
</defs>
<style xmlns="">#yddContainer{display:block;font-family:Microsoft YaHei;position:relative;width:100%;height:100%;top:-4px;left:-4px;font-size:12px;border:1px solid}#yddTop{display:block;height:22px}#yddTopBorderlr{display:block;position:static;height:17px;padding:2px 28px;line-height:17px;font-size:12px;color:#5079bb;font-weight:bold;border-style:none solid;border-width:1px}#yddTopBorderlr .ydd-sp{position:absolute;top:2px;height:0;overflow:hidden}.ydd-icon{left:5px;width:17px;padding:0px 0px 0px 0px;padding-top:17px;background-position:-16px -44px}.ydd-close{right:5px;width:16px;padding-top:16px;background-position:left -44px}#yddKeyTitle{float:left;text-decoration:none}#yddMiddle{display:block;margin-bottom:10px}.ydd-tabs{display:block;margin:5px 0;padding:0 5px;height:18px;border-bottom:1px solid}.ydd-tab{display:block;float:left;height:18px;margin:0 5px -1px 0;padding:0 4px;line-height:18px;border:1px solid;border-bottom:none}.ydd-trans-container{display:block;line-height:160%}.ydd-trans-container a{text-decoration:none;}#yddBottom{position:absolute;bottom:0;left:0;width:100%;height:22px;line-height:22px;overflow:hidden;background-position:left -22px}.ydd-padding010{padding:0 10px}#yddWrapper{color:#252525;z-index:10001;background:url(chrome-extension://eopjamdnofihpioajgfdikhhbobonhbb/ab20.png);}#yddContainer{background:#fff;border-color:#4b7598}#yddTopBorderlr{border-color:#f0f8fc}#yddWrapper .ydd-sp{background-image:url(chrome-extension://eopjamdnofihpioajgfdikhhbobonhbb/ydd-sprite.png)}#yddWrapper a,#yddWrapper a:hover,#yddWrapper a:visited{color:#50799b}#yddWrapper .ydd-tabs{color:#959595}.ydd-tabs,.ydd-tab{background:#fff;border-color:#d5e7f3}#yddBottom{color:#363636}#yddWrapper{min-width:250px;max-width:400px;}</style><script xmlns=""/></svg>