<svg width="20" height="20" viewBox="0 0 20 20" fill="none" xmlns="http://www.w3.org/2000/svg">
<g clip-path="url(#clip0_7848_383671)">
<path d="M7.86369 13.3949C7.86369 13.9883 7.38252 14.4695 6.78906 14.4695V15.2738C7.82685 15.2738 8.66817 14.4325 8.66817 13.3947C8.66817 12.3571 7.82685 11.5156 6.78906 11.5156V12.32C7.38252 12.3201 7.86369 12.8013 7.86369 13.3949Z" fill="white"/>
<path d="M4.91016 13.3945C4.91016 14.4323 5.75148 15.2736 6.78926 15.2736V14.4692C6.19581 14.4692 5.71464 13.9881 5.71464 13.3946C5.71464 12.8011 6.19581 12.32 6.78926 12.32V11.5156C5.75148 11.5154 4.91016 12.3567 4.91016 13.3945Z" fill="white"/>
<path d="M3.14661 13.3926H3.14648C3.14648 15.4045 4.77747 17.0353 6.78912 17.0353V16.077C5.30649 16.077 4.10477 14.8753 4.10477 13.3926C4.10477 11.9101 5.30649 10.7083 6.78912 10.7083V9.75C4.77747 9.74987 3.14661 11.3809 3.14661 13.3926Z" fill="white"/>
<path d="M9.47341 13.3926C9.47341 14.8753 8.27156 16.077 6.78906 16.077V17.0353C8.80084 17.0353 10.4316 15.4044 10.4316 13.3926H10.4317C10.4317 11.3809 8.80071 9.75 6.78906 9.75V10.7083C8.27156 10.7083 9.47341 11.9101 9.47341 13.3926Z" fill="white"/>
<path d="M4.91071 13.3953C4.91071 12.3576 5.75203 11.5162 6.78982 11.5162V10.7109C5.30719 10.7109 4.10547 11.9128 4.10547 13.3953C4.10547 14.8779 5.30719 16.0796 6.78982 16.0796V15.2744C5.75203 15.2743 4.91071 14.4331 4.91071 13.3953Z" fill="url(#paint0_linear_7848_383671)"/>
<path d="M9.47341 13.3953C9.47341 11.9128 8.27156 10.7109 6.78906 10.7109V11.5162C7.82685 11.5162 8.66817 12.3575 8.66817 13.3953C8.66817 14.4331 7.82685 15.2744 6.78906 15.2744V16.0796C8.27156 16.0796 9.47341 14.8779 9.47341 13.3953Z" fill="url(#paint1_linear_7848_383671)"/>
<path d="M12.7313 12.7315H11.6784C11.5616 11.8646 11.2212 11.0709 10.7154 10.4073L11.4602 9.66241C11.7184 9.40429 11.7184 8.98199 11.4602 8.72387C11.2021 8.46575 10.7798 8.46575 10.5217 8.72387L9.77685 9.46873C9.11326 8.963 8.31941 8.62234 7.45278 8.50575V7.45278C7.45278 7.08769 7.15415 6.78906 6.78906 6.78906V9.75254C8.80084 9.75254 10.4317 11.3835 10.4317 13.3952H10.4316C10.4316 15.4071 8.80071 17.0378 6.78906 17.0378V20.0013C7.15415 20.0013 7.45278 19.7027 7.45278 19.3377V18.2847C8.31954 18.1679 9.11326 17.8275 9.77685 17.3218L10.5217 18.0665C10.7798 18.3247 11.2023 18.3247 11.4602 18.0665C11.7184 17.8085 11.7184 17.3861 11.4602 17.1279L10.7155 16.3831C11.2212 15.7195 11.5618 14.9257 11.6784 14.059H12.7313C13.0964 14.059 13.3951 13.7604 13.3951 13.3953C13.3951 13.03 13.0964 12.7315 12.7313 12.7315Z" fill="url(#paint2_linear_7848_383671)"/>
<path d="M3.14707 13.3952H3.1472C3.1472 11.3834 4.77806 9.75254 6.78971 9.75254V6.78906C6.42462 6.78906 6.12612 7.08769 6.12612 7.45278V8.50575C5.25923 8.62247 4.46551 8.963 3.80192 9.46873L3.05707 8.72387C2.79895 8.46575 2.37664 8.46575 2.11853 8.72387C1.86041 8.98199 1.86041 9.40429 2.11853 9.66241L2.86338 10.4073C2.35766 11.0709 2.01713 11.8647 1.90041 12.7315H0.847307C0.48222 12.7315 0.183594 13.03 0.183594 13.3951C0.183594 13.7601 0.482347 14.0588 0.847307 14.0588H1.90028C2.017 14.9255 2.35753 15.7192 2.86326 16.3828L2.1184 17.1277C1.86028 17.3858 1.86028 17.8082 2.1184 18.0662C2.37652 18.3245 2.79882 18.3245 3.05694 18.0662L3.8018 17.3215C4.46538 17.8272 5.25923 18.1678 6.12599 18.2845V19.3375C6.12599 19.7024 6.42449 20.001 6.78958 20.001V17.0376C4.77806 17.0378 3.14707 15.4069 3.14707 13.3952Z" fill="url(#paint3_linear_7848_383671)"/>
<path d="M5.71484 13.3951C5.71484 13.9885 6.19601 14.4697 6.78947 14.4697V12.3203C6.19601 12.3203 5.71484 12.8015 5.71484 13.3951Z" fill="white"/>
<path d="M7.86369 13.3949C7.86369 12.8015 7.38252 12.3203 6.78906 12.3203V14.4697C7.38252 14.4696 7.86369 13.9884 7.86369 13.3949Z" fill="white"/>
<path d="M13.8945 7.58669C13.8945 8.29686 14.4704 8.87259 15.1804 8.87259V6.30078C14.4704 6.30078 13.8945 6.87664 13.8945 7.58669Z" fill="white"/>
<path d="M16.4677 7.58669C16.4677 6.87664 15.8918 6.30078 15.1816 6.30078V8.87259C15.8918 8.87272 16.4677 8.29698 16.4677 7.58669Z" fill="white"/>
<path d="M17.0188 7.58834C17.0188 8.60309 16.1963 9.42542 15.1816 9.42542V10.1531C16.5939 10.1531 17.7386 9.0083 17.7386 7.59606H17.7388C17.7388 6.18395 16.5939 5.03906 15.1816 5.03906V5.75139C16.1963 5.75139 17.0188 6.57384 17.0188 7.58834Z" fill="white"/>
<path d="M12.623 7.59619C12.6229 9.00843 13.7678 10.1532 15.1799 10.1532V9.42554C14.1653 9.42554 13.3428 8.60321 13.3428 7.58846C13.3428 6.57384 14.1653 5.75139 15.1799 5.75139V5.03906C13.7678 5.03919 12.623 6.18407 12.623 7.59619Z" fill="white"/>
<path d="M17.0188 7.58708C17.0188 6.57246 16.1963 5.75 15.1816 5.75V6.30117C15.8918 6.30117 16.4677 6.87703 16.4677 7.58708C16.4677 8.29725 15.8918 8.87298 15.1816 8.87298V9.42416C16.1963 9.42416 17.0188 8.60183 17.0188 7.58708Z" fill="url(#paint4_linear_7848_383671)"/>
<path d="M13.8949 7.58708C13.8949 6.87703 14.4708 6.30117 15.1808 6.30117V5.75C14.1662 5.75 13.3438 6.57246 13.3438 7.58708C13.3438 8.60183 14.1662 9.42416 15.1808 9.42416V8.87298C14.4708 8.87311 13.8949 8.29738 13.8949 7.58708Z" fill="url(#paint5_linear_7848_383671)"/>
<path d="M19.3533 7.12856H18.614C18.5322 6.52004 18.2931 5.96292 17.938 5.49707L18.4608 4.97412C18.6421 4.79297 18.6421 4.4965 18.4608 4.31534C18.2796 4.13407 17.9832 4.13407 17.8021 4.31534L17.2791 4.83816C16.8133 4.48308 16.2561 4.2442 15.6476 4.16217V3.42288C15.6476 3.16679 15.438 2.95703 15.1816 2.95703V5.03729C16.5939 5.03729 17.7388 6.18217 17.7388 7.59429H17.7386C17.7386 9.00653 16.5939 10.1513 15.1816 10.1513V12.2317C15.4379 12.2317 15.6476 12.022 15.6476 11.7658V11.0265C16.2561 10.9446 16.8133 10.7056 17.2791 10.3505L17.8021 10.8734C17.9832 11.0546 18.2797 11.0546 18.4608 10.8734C18.6421 10.6922 18.6421 10.3957 18.4608 10.2146L17.938 9.69163C18.2931 9.22578 18.5321 8.66866 18.614 8.06014H19.3533C19.6094 8.06014 19.8191 7.85051 19.8191 7.59416C19.819 7.33832 19.6094 7.12856 19.3533 7.12856Z" fill="url(#paint6_linear_7848_383671)"/>
<path d="M12.6234 7.59429C12.6235 6.18217 13.7682 5.03729 15.1804 5.03729V2.95703C14.9243 2.95703 14.7145 3.16666 14.7145 3.42288V4.16217C14.106 4.24407 13.5489 4.48308 13.083 4.83816L12.5602 4.31535C12.3789 4.13407 12.0824 4.13407 11.9013 4.31535C11.72 4.4965 11.72 4.79297 11.9013 4.97412L12.4241 5.49707C12.069 5.96292 11.8301 6.52004 11.7481 7.12856H11.0089C10.7527 7.12856 10.543 7.33819 10.543 7.59441C10.543 7.85063 10.7526 8.06039 11.0089 8.06039H11.7481C11.8301 8.66891 12.069 9.22604 12.4241 9.69189L11.9013 10.2148C11.72 10.396 11.72 10.6925 11.9013 10.8736C12.0826 11.0549 12.3789 11.0549 12.5602 10.8736L13.083 10.3508C13.5489 10.7059 14.106 10.9448 14.7145 11.0268V11.7661C14.7145 12.0222 14.9241 12.2319 15.1804 12.2319V10.1513C13.7682 10.1513 12.6234 9.00653 12.6234 7.59429Z" fill="url(#paint7_linear_7848_383671)"/>
<path d="M7.39488 3.79503C7.39488 3.1436 7.92302 2.61559 8.57433 2.61559V1.70312C7.41894 1.70312 6.48242 2.63977 6.48242 3.79503C6.48242 4.95042 7.41894 5.88693 8.57433 5.88693V4.97447C7.92302 4.97447 7.39488 4.44646 7.39488 3.79503Z" fill="white"/>
<path d="M10.6661 3.79503C10.6661 2.63964 9.72961 1.70312 8.57422 1.70312V2.61559C9.22565 2.61559 9.75366 3.14372 9.75366 3.79503C9.75366 4.44646 9.22553 4.97447 8.57422 4.97447V5.88693C9.72961 5.88693 10.6661 4.95042 10.6661 3.79503Z" fill="white"/>
<path d="M5.16046 4.17495H5.76518C5.83215 4.67283 6.02773 5.12868 6.31825 5.50972L5.89051 5.93746C5.74227 6.0857 5.74227 6.32837 5.89051 6.47661C6.03874 6.62485 6.28129 6.62485 6.42953 6.47661L6.85728 6.04886C7.23844 6.33926 7.69416 6.53484 8.19204 6.60194V7.20653C8.19204 7.41617 8.36345 7.58769 8.57321 7.58769V5.88582C7.41782 5.88582 6.4813 4.9493 6.4813 3.79391C6.4813 2.63852 7.41782 1.70201 8.57321 1.70201V0C8.36357 0 8.19204 0.17153 8.19204 0.381163V0.985885C7.69416 1.05285 7.23844 1.24843 6.85728 1.53896L6.42953 1.11121C6.28129 0.962972 6.03874 0.962972 5.89051 1.11121C5.74227 1.25945 5.74227 1.50199 5.89051 1.65023L6.31813 2.07798C6.02773 2.45914 5.83215 2.91487 5.76518 3.41275H5.16046C4.95083 3.41275 4.7793 3.58415 4.7793 3.79391C4.7793 4.00354 4.95095 4.17495 5.16046 4.17495Z" fill="url(#paint8_linear_7848_383671)"/>
<path d="M10.6661 3.79391C10.6661 4.9493 9.72961 5.88582 8.57422 5.88582V7.58769C8.78385 7.58769 8.95538 7.41629 8.95538 7.20653V6.60194C9.45326 6.53484 9.90899 6.33926 10.2902 6.04886L10.7179 6.47661C10.8661 6.62485 11.1087 6.62485 11.2569 6.47661C11.4052 6.32837 11.4052 6.0857 11.2569 5.93746L10.8293 5.50972C11.1197 5.12868 11.3153 4.67283 11.3822 4.17495H11.987C12.1966 4.17495 12.3681 4.00354 12.3681 3.79378C12.3681 3.58415 12.1966 3.41262 11.987 3.41262H11.3822C11.3153 2.91474 11.1197 2.45902 10.8292 2.07785L11.2569 1.6501C11.4052 1.50187 11.4052 1.25932 11.2569 1.11108C11.1087 0.962846 10.8661 0.962846 10.7179 1.11108L10.2902 1.53883C9.90899 1.24831 9.45326 1.05272 8.95538 0.985759V0.381163C8.95538 0.17153 8.78385 0 8.57422 0V1.70188C9.72961 1.70188 10.6661 2.63852 10.6661 3.79391Z" fill="url(#paint9_linear_7848_383671)"/>
<path d="M7.39453 3.79285C7.39453 4.44428 7.92267 4.97229 8.57397 4.97229V2.61328C7.92267 2.61328 7.39453 3.14142 7.39453 3.79285Z" fill="url(#paint10_linear_7848_383671)"/>
<path d="M9.75366 3.79272C9.75366 3.14129 9.22553 2.61328 8.57422 2.61328V4.97229C9.22565 4.97216 9.75366 4.44416 9.75366 3.79272Z" fill="url(#paint11_linear_7848_383671)"/>
</g>
<defs>
<linearGradient id="paint0_linear_7848_383671" x1="4.10547" y1="13.3953" x2="6.78982" y2="13.3953" gradientUnits="userSpaceOnUse">
<stop stop-color="#4776E6"/>
<stop offset="1" stop-color="#8E54E9"/>
</linearGradient>
<linearGradient id="paint1_linear_7848_383671" x1="6.78906" y1="13.3953" x2="9.47341" y2="13.3953" gradientUnits="userSpaceOnUse">
<stop stop-color="#4776E6"/>
<stop offset="1" stop-color="#8E54E9"/>
</linearGradient>
<linearGradient id="paint2_linear_7848_383671" x1="6.78906" y1="13.3952" x2="13.3951" y2="13.3952" gradientUnits="userSpaceOnUse">
<stop stop-color="#4776E6"/>
<stop offset="1" stop-color="#8E54E9"/>
</linearGradient>
<linearGradient id="paint3_linear_7848_383671" x1="0.183594" y1="13.3951" x2="6.78971" y2="13.3951" gradientUnits="userSpaceOnUse">
<stop stop-color="#4776E6"/>
<stop offset="1" stop-color="#8E54E9"/>
</linearGradient>
<linearGradient id="paint4_linear_7848_383671" x1="15.1816" y1="7.58708" x2="17.0188" y2="7.58708" gradientUnits="userSpaceOnUse">
<stop stop-color="#4776E6"/>
<stop offset="1" stop-color="#8E54E9"/>
</linearGradient>
<linearGradient id="paint5_linear_7848_383671" x1="13.3438" y1="7.58708" x2="15.1808" y2="7.58708" gradientUnits="userSpaceOnUse">
<stop stop-color="#4776E6"/>
<stop offset="1" stop-color="#8E54E9"/>
</linearGradient>
<linearGradient id="paint6_linear_7848_383671" x1="15.1816" y1="7.59435" x2="19.8191" y2="7.59435" gradientUnits="userSpaceOnUse">
<stop stop-color="#4776E6"/>
<stop offset="1" stop-color="#8E54E9"/>
</linearGradient>
<linearGradient id="paint7_linear_7848_383671" x1="10.543" y1="7.59448" x2="15.1804" y2="7.59448" gradientUnits="userSpaceOnUse">
<stop stop-color="#4776E6"/>
<stop offset="1" stop-color="#8E54E9"/>
</linearGradient>
<linearGradient id="paint8_linear_7848_383671" x1="4.7793" y1="3.79385" x2="8.57321" y2="3.79385" gradientUnits="userSpaceOnUse">
<stop stop-color="#4776E6"/>
<stop offset="1" stop-color="#8E54E9"/>
</linearGradient>
<linearGradient id="paint9_linear_7848_383671" x1="8.57422" y1="3.79385" x2="12.3681" y2="3.79385" gradientUnits="userSpaceOnUse">
<stop stop-color="#4776E6"/>
<stop offset="1" stop-color="#8E54E9"/>
</linearGradient>
<linearGradient id="paint10_linear_7848_383671" x1="7.39453" y1="3.79279" x2="8.57397" y2="3.79279" gradientUnits="userSpaceOnUse">
<stop stop-color="#4776E6"/>
<stop offset="1" stop-color="#8E54E9"/>
</linearGradient>
<linearGradient id="paint11_linear_7848_383671" x1="8.57422" y1="3.79279" x2="9.75366" y2="3.79279" gradientUnits="userSpaceOnUse">
<stop stop-color="#4776E6"/>
<stop offset="1" stop-color="#8E54E9"/>
</linearGradient>
<clipPath id="clip0_7848_383671">
<rect width="20" height="20" fill="white"/>
</clipPath>
</defs>
</svg>
